<?xml version="1.0" encoding="utf-8"?>
<svg viewBox="0 0 179 42" width="179px" height="42px" xmlns="http://www.w3.org/2000/svg">
  <path d="M 21.615 32.942 L 15.846 32.942 L 6.805 9.057 L 13.282 9.057 L 18.815 25.993 L 18.95 25.993 L 24.449 9.057 L 30.825 9.057 L 21.615 32.942 Z M 32.779 32.942 L 32.779 9.057 L 48.838 9.057 L 48.838 13.949 L 38.346 13.949 L 38.346 18.436 L 48.264 18.436 L 48.264 23.058 L 38.346 23.058 L 38.346 28.017 L 49.445 28.017 L 49.445 32.942 L 32.779 32.942 Z M 75.556 20.932 C 75.556 23.024 75.168 24.829 74.392 26.347 C 73.616 27.865 72.593 29.113 71.322 30.092 C 70.051 31.07 68.617 31.79 67.02 32.251 C 65.424 32.712 63.805 32.942 62.162 32.942 L 53.256 32.942 L 53.256 9.057 L 61.892 9.057 C 63.579 9.057 65.244 9.254 66.885 9.647 C 68.528 10.041 69.989 10.693 71.271 11.604 C 72.553 12.515 73.588 13.735 74.375 15.265 C 75.162 16.794 75.556 18.683 75.556 20.932 Z M 69.551 20.932 C 69.551 19.583 69.331 18.464 68.893 17.575 C 68.454 16.687 67.87 15.978 67.139 15.45 C 66.408 14.922 65.576 14.545 64.642 14.32 C 63.709 14.095 62.747 13.983 61.758 13.983 L 58.89 13.983 L 58.89 27.949 L 61.623 27.949 C 62.658 27.949 63.653 27.831 64.608 27.595 C 65.564 27.359 66.408 26.971 67.139 26.431 C 67.87 25.892 68.454 25.172 68.893 24.272 C 69.331 23.373 69.551 22.259 69.551 20.932 Z M 79.369 32.942 L 79.369 9.057 L 85.171 9.057 L 85.171 32.942 L 79.369 32.942 Z" style="fill: rgb(255,255,255); white-space: pre;"/>
  <path d="M 89.663 14.922 L 90.612 14.839 C 90.657 15.219 90.762 15.531 90.926 15.775 C 91.09 16.019 91.345 16.216 91.691 16.366 C 92.036 16.516 92.425 16.592 92.857 16.592 C 93.241 16.592 93.579 16.534 93.873 16.42 C 94.167 16.306 94.386 16.15 94.529 15.951 C 94.673 15.752 94.745 15.536 94.745 15.301 C 94.745 15.062 94.675 14.854 94.537 14.676 C 94.399 14.498 94.17 14.348 93.852 14.227 C 93.649 14.148 93.198 14.024 92.499 13.857 C 91.801 13.689 91.312 13.531 91.032 13.382 C 90.669 13.192 90.399 12.956 90.22 12.675 C 90.043 12.393 89.954 12.077 89.954 11.728 C 89.954 11.344 90.062 10.986 90.281 10.652 C 90.498 10.319 90.816 10.065 91.234 9.893 C 91.653 9.72 92.117 9.633 92.629 9.633 C 93.192 9.633 93.689 9.724 94.12 9.905 C 94.55 10.087 94.881 10.354 95.113 10.706 C 95.345 11.059 95.469 11.458 95.486 11.904 L 94.522 11.977 C 94.47 11.496 94.295 11.134 93.995 10.888 C 93.696 10.643 93.255 10.52 92.67 10.52 C 92.062 10.52 91.619 10.632 91.341 10.854 C 91.063 11.077 90.923 11.346 90.923 11.661 C 90.923 11.934 91.022 12.158 91.219 12.335 C 91.413 12.511 91.918 12.692 92.735 12.876 C 93.553 13.061 94.114 13.223 94.418 13.361 C 94.86 13.565 95.187 13.823 95.398 14.136 C 95.609 14.449 95.715 14.81 95.715 15.218 C 95.715 15.622 95.598 16.003 95.367 16.361 C 95.135 16.718 94.802 16.997 94.369 17.195 C 93.935 17.394 93.446 17.494 92.904 17.494 C 92.216 17.494 91.64 17.394 91.175 17.193 C 90.71 16.992 90.345 16.691 90.081 16.288 C 89.816 15.886 89.677 15.43 89.663 14.922 Z M 102.849 14.699 L 103.854 14.953 C 103.643 15.779 103.264 16.409 102.716 16.843 C 102.168 17.277 101.499 17.494 100.707 17.494 C 99.888 17.494 99.222 17.327 98.708 16.994 C 98.195 16.66 97.804 16.177 97.536 15.544 C 97.269 14.911 97.134 14.232 97.134 13.507 C 97.134 12.715 97.286 12.025 97.588 11.435 C 97.891 10.846 98.321 10.398 98.88 10.093 C 99.438 9.786 100.052 9.633 100.723 9.633 C 101.483 9.633 102.123 9.827 102.641 10.214 C 103.159 10.601 103.521 11.146 103.725 11.847 L 102.735 12.081 C 102.558 11.528 102.302 11.125 101.967 10.873 C 101.632 10.62 101.21 10.494 100.702 10.494 C 100.118 10.494 99.629 10.634 99.237 10.914 C 98.845 11.194 98.569 11.57 98.41 12.042 C 98.251 12.514 98.171 13 98.171 13.501 C 98.171 14.148 98.266 14.712 98.454 15.194 C 98.642 15.676 98.936 16.037 99.333 16.275 C 99.73 16.514 100.161 16.633 100.624 16.633 C 101.188 16.633 101.664 16.471 102.055 16.145 C 102.446 15.821 102.71 15.339 102.849 14.699 Z M 105.465 17.364 L 105.465 9.763 L 106.47 9.763 L 106.47 12.884 L 110.422 12.884 L 110.422 9.763 L 111.427 9.763 L 111.427 17.364 L 110.422 17.364 L 110.422 13.781 L 106.47 13.781 L 106.47 17.364 L 105.465 17.364 Z M 113.133 13.662 C 113.133 12.401 113.471 11.413 114.149 10.699 C 114.827 9.985 115.701 9.628 116.773 9.628 C 117.475 9.628 118.107 9.796 118.67 10.131 C 119.234 10.466 119.663 10.934 119.959 11.534 C 120.255 12.133 120.402 12.813 120.402 13.574 C 120.402 14.345 120.247 15.034 119.936 15.642 C 119.625 16.251 119.184 16.712 118.613 17.024 C 118.043 17.337 117.428 17.494 116.767 17.494 C 116.052 17.494 115.412 17.321 114.849 16.975 C 114.286 16.63 113.859 16.158 113.568 15.56 C 113.278 14.961 113.133 14.329 113.133 13.662 Z M 114.17 13.678 C 114.17 14.593 114.416 15.315 114.909 15.842 C 115.402 16.369 116.019 16.633 116.762 16.633 C 117.52 16.633 118.143 16.367 118.632 15.834 C 119.12 15.302 119.365 14.547 119.365 13.569 C 119.365 12.95 119.261 12.41 119.052 11.949 C 118.843 11.487 118.537 11.129 118.134 10.875 C 117.731 10.621 117.279 10.494 116.778 10.494 C 116.066 10.494 115.453 10.738 114.94 11.228 C 114.427 11.717 114.17 12.534 114.17 13.678 Z M 121.731 13.662 C 121.731 12.401 122.069 11.413 122.747 10.699 C 123.425 9.985 124.299 9.628 125.371 9.628 C 126.073 9.628 126.705 9.796 127.268 10.131 C 127.832 10.466 128.261 10.934 128.557 11.534 C 128.852 12.133 129 12.813 129 13.574 C 129 14.345 128.844 15.034 128.534 15.642 C 128.222 16.251 127.782 16.712 127.211 17.024 C 126.641 17.337 126.026 17.494 125.365 17.494 C 124.65 17.494 124.01 17.321 123.447 16.975 C 122.883 16.63 122.457 16.158 122.166 15.56 C 121.876 14.961 121.731 14.329 121.731 13.662 Z M 122.768 13.678 C 122.768 14.593 123.014 15.315 123.506 15.842 C 123.999 16.369 124.617 16.633 125.36 16.633 C 126.117 16.633 126.741 16.367 127.229 15.834 C 127.718 15.302 127.963 14.547 127.963 13.569 C 127.963 12.95 127.858 12.41 127.65 11.949 C 127.44 11.487 127.134 11.129 126.732 10.875 C 126.329 10.621 125.877 10.494 125.376 10.494 C 124.663 10.494 124.051 10.738 123.538 11.228 C 123.024 11.717 122.768 12.534 122.768 13.678 Z M 130.593 17.364 L 130.593 9.763 L 131.599 9.763 L 131.599 16.467 L 135.342 16.467 L 135.342 17.364 L 130.593 17.364 Z M 139.746 17.364 L 139.746 9.763 L 141.26 9.763 L 143.059 15.145 C 143.225 15.646 143.346 16.021 143.422 16.27 C 143.508 15.993 143.643 15.587 143.826 15.052 L 145.646 9.763 L 147 9.763 L 147 17.364 L 146.03 17.364 L 146.03 11.002 L 143.822 17.364 L 142.914 17.364 L 140.715 10.893 L 140.715 17.364 L 139.746 17.364 Z M 152.517 14.383 L 152.517 13.491 L 155.737 13.486 L 155.737 16.306 C 155.243 16.7 154.733 16.997 154.208 17.195 C 153.682 17.394 153.143 17.494 152.59 17.494 C 151.844 17.494 151.165 17.334 150.555 17.014 C 149.945 16.694 149.484 16.232 149.173 15.627 C 148.862 15.022 148.707 14.346 148.707 13.6 C 148.707 12.86 148.861 12.17 149.171 11.528 C 149.48 10.887 149.925 10.411 150.506 10.1 C 151.086 9.789 151.755 9.633 152.512 9.633 C 153.062 9.633 153.559 9.722 154.003 9.9 C 154.447 10.079 154.795 10.326 155.047 10.644 C 155.3 10.963 155.491 11.377 155.623 11.888 L 154.716 12.137 C 154.602 11.75 154.46 11.446 154.291 11.225 C 154.121 11.004 153.879 10.827 153.565 10.694 C 153.25 10.561 152.901 10.494 152.517 10.494 C 152.057 10.494 151.66 10.564 151.325 10.704 C 150.99 10.844 150.719 11.028 150.513 11.256 C 150.308 11.484 150.148 11.735 150.034 12.008 C 149.841 12.478 149.744 12.988 149.744 13.537 C 149.744 14.215 149.86 14.782 150.094 15.238 C 150.327 15.694 150.666 16.033 151.112 16.254 C 151.558 16.476 152.032 16.586 152.533 16.586 C 152.968 16.586 153.394 16.503 153.809 16.335 C 154.223 16.167 154.538 15.989 154.752 15.798 L 154.752 14.383 L 152.517 14.383 Z M 157.527 17.364 L 157.527 9.763 L 159.042 9.763 L 160.84 15.145 C 161.006 15.646 161.127 16.021 161.204 16.27 C 161.29 15.993 161.425 15.587 161.608 15.052 L 163.428 9.763 L 164.781 9.763 L 164.781 17.364 L 163.812 17.364 L 163.812 11.002 L 161.603 17.364 L 160.695 17.364 L 158.497 10.893 L 158.497 17.364 L 157.527 17.364 Z M 168.676 17.364 L 168.676 10.66 L 166.172 10.66 L 166.172 9.763 L 172.196 9.763 L 172.196 10.66 L 169.682 10.66 L 169.682 17.364 L 168.676 17.364 Z" style="fill: rgb(255,255,255); white-space: pre;"/>
  <path d="M 89.837 28.517 L 91.131 28.404 C 91.193 28.922 91.335 29.348 91.559 29.68 C 91.783 30.013 92.131 30.281 92.602 30.487 C 93.073 30.692 93.604 30.794 94.193 30.794 C 94.717 30.794 95.179 30.716 95.58 30.561 C 95.98 30.406 96.278 30.192 96.474 29.921 C 96.67 29.65 96.768 29.354 96.768 29.033 C 96.768 28.708 96.674 28.424 96.484 28.181 C 96.296 27.938 95.985 27.734 95.551 27.569 C 95.273 27.461 94.658 27.292 93.705 27.064 C 92.753 26.835 92.086 26.619 91.704 26.417 C 91.209 26.157 90.84 25.835 90.597 25.451 C 90.354 25.067 90.233 24.637 90.233 24.161 C 90.233 23.637 90.381 23.148 90.678 22.693 C 90.975 22.238 91.41 21.893 91.98 21.657 C 92.551 21.421 93.184 21.303 93.883 21.303 C 94.651 21.303 95.328 21.427 95.916 21.674 C 96.503 21.922 96.954 22.287 97.269 22.767 C 97.586 23.248 97.756 23.793 97.779 24.401 L 96.463 24.5 C 96.393 23.844 96.154 23.35 95.746 23.015 C 95.338 22.68 94.736 22.512 93.939 22.512 C 93.109 22.512 92.504 22.664 92.125 22.968 C 91.745 23.273 91.555 23.64 91.555 24.069 C 91.555 24.441 91.69 24.747 91.958 24.988 C 92.223 25.228 92.912 25.475 94.027 25.727 C 95.142 25.979 95.907 26.2 96.322 26.389 C 96.925 26.666 97.371 27.019 97.659 27.445 C 97.947 27.872 98.091 28.364 98.091 28.92 C 98.091 29.472 97.932 29.992 97.616 30.48 C 97.301 30.968 96.847 31.347 96.255 31.618 C 95.663 31.889 94.997 32.025 94.257 32.025 C 93.319 32.025 92.532 31.888 91.898 31.615 C 91.264 31.341 90.767 30.93 90.406 30.38 C 90.046 29.831 89.856 29.21 89.837 28.517 Z M 99.542 26.799 C 99.542 25.078 100.004 23.73 100.929 22.756 C 101.853 21.783 103.046 21.296 104.508 21.296 C 105.464 21.296 106.327 21.525 107.096 21.982 C 107.864 22.44 108.45 23.078 108.854 23.896 C 109.256 24.713 109.458 25.641 109.458 26.678 C 109.458 27.73 109.246 28.671 108.822 29.5 C 108.397 30.33 107.796 30.958 107.018 31.385 C 106.24 31.811 105.401 32.025 104.5 32.025 C 103.525 32.025 102.652 31.789 101.883 31.318 C 101.115 30.846 100.533 30.203 100.137 29.387 C 99.741 28.571 99.542 27.708 99.542 26.799 Z M 100.958 26.82 C 100.958 28.069 101.293 29.053 101.965 29.772 C 102.637 30.491 103.48 30.851 104.493 30.851 C 105.526 30.851 106.376 30.488 107.043 29.762 C 107.71 29.036 108.043 28.005 108.043 26.671 C 108.043 25.827 107.901 25.091 107.616 24.461 C 107.331 23.832 106.913 23.344 106.364 22.997 C 105.814 22.65 105.198 22.477 104.514 22.477 C 103.543 22.477 102.708 22.811 102.008 23.478 C 101.308 24.145 100.958 25.259 100.958 26.82 Z M 111.297 31.848 L 111.297 21.48 L 118.291 21.48 L 118.291 22.703 L 112.669 22.703 L 112.669 25.914 L 117.534 25.914 L 117.534 27.138 L 112.669 27.138 L 112.669 31.848 L 111.297 31.848 Z M 122.712 31.848 L 122.712 22.703 L 119.296 22.703 L 119.296 21.48 L 127.514 21.48 L 127.514 22.703 L 124.084 22.703 L 124.084 31.848 L 122.712 31.848 Z M 130.729 31.848 L 127.978 21.48 L 129.385 21.48 L 130.963 28.277 C 131.132 28.989 131.278 29.696 131.401 30.398 C 131.665 29.29 131.82 28.651 131.867 28.481 L 133.841 21.48 L 135.496 21.48 L 136.981 26.728 C 137.353 28.029 137.622 29.253 137.787 30.398 C 137.919 29.743 138.091 28.99 138.303 28.142 L 139.93 21.48 L 141.309 21.48 L 138.466 31.848 L 137.144 31.848 L 134.958 23.949 C 134.774 23.288 134.666 22.883 134.633 22.732 C 134.524 23.208 134.423 23.614 134.329 23.949 L 132.129 31.848 L 130.729 31.848 Z M 140.913 31.848 L 144.895 21.48 L 146.373 21.48 L 150.616 31.848 L 149.053 31.848 L 147.844 28.708 L 143.508 28.708 L 142.37 31.848 L 140.913 31.848 Z M 143.905 27.59 L 147.419 27.59 L 146.337 24.719 C 146.007 23.847 145.762 23.131 145.602 22.569 C 145.47 23.234 145.284 23.894 145.043 24.549 L 143.905 27.59 Z M 151.733 31.848 L 151.733 21.48 L 156.329 21.48 C 157.254 21.48 157.956 21.573 158.437 21.759 C 158.918 21.946 159.302 22.274 159.59 22.746 C 159.878 23.217 160.021 23.738 160.021 24.309 C 160.021 25.044 159.783 25.664 159.307 26.169 C 158.831 26.673 158.095 26.994 157.101 27.131 C 157.463 27.305 157.739 27.477 157.928 27.647 C 158.329 28.015 158.708 28.475 159.066 29.027 L 160.87 31.848 L 159.144 31.848 L 157.772 29.691 C 157.372 29.069 157.041 28.592 156.782 28.262 C 156.523 27.933 156.291 27.701 156.085 27.569 C 155.881 27.437 155.672 27.345 155.459 27.293 C 155.304 27.261 155.05 27.244 154.696 27.244 L 153.105 27.244 L 153.105 31.848 L 151.733 31.848 Z M 153.105 26.056 L 156.054 26.056 C 156.681 26.056 157.171 25.991 157.525 25.861 C 157.878 25.732 158.147 25.525 158.331 25.239 C 158.515 24.954 158.607 24.644 158.607 24.309 C 158.607 23.819 158.429 23.415 158.073 23.099 C 157.717 22.784 157.155 22.626 156.387 22.626 L 153.105 22.626 L 153.105 26.056 Z M 162.197 31.848 L 162.197 21.48 L 169.694 21.48 L 169.694 22.703 L 163.569 22.703 L 163.569 25.879 L 169.305 25.879 L 169.305 27.096 L 163.569 27.096 L 163.569 30.624 L 169.935 30.624 L 169.935 31.848 L 162.197 31.848 Z" style="fill: rgb(255,255,255); white-space: pre;"/>
</svg>